<svg xmlns="http://www.w3.org/2000/svg" width="94.635" height="91.716" viewBox="0 0 94.635 91.716">
  <path id="Path_52" data-name="Path 52" d="M115.94,78.86C108.42,73.92,99.5,62.72,101.57,60c15.32-20.53,1.77-58.43-33.38-60C35.31-1.4,13.88,41.69,39.47,67.37c12,12.07,30.86,16.28,49.84,4.84,3.06-1.84,12.26.78,19.58,11.25C120.5,100.07,129.63,87.84,115.94,78.86ZM74.07,7.21a32.76,32.76,0,0,0-2.26,65.44c-1,.09-1.91.14-2.88.14a33.2,33.2,0,0,1,0-66.4,32.77,32.77,0,0,1,7.72.93C75.8,7.25,74.94,7.21,74.07,7.21ZM118.3,88.15a1.58,1.58,0,1,1,1.7-1.57,1.65,1.65,0,0,1-1.7,1.57Z" transform="translate(-28.167 0.033)" fill="#3c2800"/>
</svg>
