<svg xmlns="http://www.w3.org/2000/svg" width="20.008" height="20" viewBox="0 0 20.008 20">
  <g id="icon-cart_24px" transform="translate(-1.996 -2)">
    <path id="icon_maps_local_grocery_store_24px" data-name="icon/maps/local_grocery_store_24px" d="M18,22a2,2,0,1,1,2-2A2,2,0,0,1,18,22ZM8,22a2,2,0,1,1,2-2A2,2,0,0,1,8,22Zm12-5H8a1.978,1.978,0,0,1-1.715-.976,2,2,0,0,1-.035-1.994L7.6,11.59,4,4H2V2h3.27l.941,2h14.8a1,1,0,0,1,.87,1.48L18.3,11.97A1.992,1.992,0,0,1,16.547,13H9.1L8,15H20v2ZM7.156,6h0l2.371,5h7.02l2.759-5H7.156Z" fill="#969696"/>
  </g>
</svg>
