<svg xmlns="http://www.w3.org/2000/svg" width="28.499" height="28.499" viewBox="0 0 28.499 28.499">
  <path id="icon_image_crop_free_24px" data-name="icon/image/crop_free_24px" d="M30.083,33.25H23.75V30.083h6.333V23.75H33.25v6.333A3.17,3.17,0,0,1,30.083,33.25Zm-15.834,0H7.916A3.17,3.17,0,0,1,4.75,30.083V23.75H7.916v6.333H14.25v3.165Zm19-19H30.083V7.916H23.75V4.75h6.333A3.17,3.17,0,0,1,33.25,7.916v6.332Zm-25.333,0H4.75V7.916A3.17,3.17,0,0,1,7.916,4.75H14.25V7.916H7.916v6.332Z" transform="translate(-4.75 -4.75)" fill="#333"/>
</svg>
