<svg xmlns="http://www.w3.org/2000/svg" width="20" height="20" viewBox="0 0 20 20">
  <g id="monetization_on_24px" transform="translate(-2 -2)">
    <path id="icon_editor_monetization_on_24px" data-name="icon/editor/monetization_on_24px" d="M12,22A10,10,0,1,1,22,12,10.011,10.011,0,0,1,12,22ZM12,4a8,8,0,1,0,8,8A8.009,8.009,0,0,0,12,4Zm1.24,15H10.9V17.3a3.975,3.975,0,0,1-1.955-.964,2.917,2.917,0,0,1-.9-2.006H9.76c.073.749.534,1.64,2.32,1.64,2,0,2.1-1.158,2.1-1.39,0-.614-.266-1.381-2.34-1.87-2.5-.6-3.66-1.618-3.66-3.209,0-1.378,1.042-2.455,2.72-2.811V5h2.33V6.71a3.119,3.119,0,0,1,2.49,2.97H14.01c-.046-1.1-.68-1.641-1.94-1.641-1.276,0-2.1.561-2.1,1.43,0,.774.656,1.242,2.34,1.67,1.8.472,3.65,1.247,3.659,3.42a2.481,2.481,0,0,1-.8,1.88,3.9,3.9,0,0,1-1.931.89V19Z" fill="#333"/>
  </g>
</svg>
