<svg xmlns="http://www.w3.org/2000/svg" width="64.804" height="62.798" viewBox="0 0 64.804 62.798">
  <path id="Qookit_transparent_app_logo-01" data-name="Qookit transparent app logo-01" d="M67.071,55.2c-5.154-3.381-11.255-11.07-9.841-12.962C67.723,28.206,58.441,2.25,34.371,1.2,11.852.245-2.817,29.748,14.7,47.335c8.233,8.261,21.129,11.146,34.133,3.31,2.095-1.263,8.394.53,13.406,7.7C70.192,69.726,76.443,61.351,67.071,55.2ZM38.4,6.137a22.434,22.434,0,0,0-1.551,44.811c-.653.057-1.305.095-1.972.095a22.735,22.735,0,0,1,0-45.468,22.14,22.14,0,0,1,5.287.638C39.582,6.165,39,6.137,38.4,6.137ZM68.664,61.564a1.083,1.083,0,1,1,1.187-1.078,1.135,1.135,0,0,1-1.168,1.078Z" transform="translate(-6.964 -1.182)"/>
</svg>
