<svg xmlns="http://www.w3.org/2000/svg" width="96.869" height="26.932" viewBox="0 0 96.869 26.932">
  <g id="Qookit_transparent_final_logo-01" data-name="Qookit transparent final logo-01" transform="translate(0.002)">
    <path id="Path_53" data-name="Path 53" d="M76.743,18.32A8.715,8.715,0,0,1,85.606,26.8a8.871,8.871,0,0,1-17.726,0A8.713,8.713,0,0,1,76.743,18.32Zm0,13.326A5.006,5.006,0,0,0,81.836,26.8a5.1,5.1,0,0,0-10.186,0A5.006,5.006,0,0,0,76.743,31.646Z" transform="translate(-44.007 -11.877)" fill="#fff"/>
    <path id="Path_54" data-name="Path 54" d="M132.293,18.32a8.715,8.715,0,0,1,8.863,8.483,8.871,8.871,0,0,1-17.726,0A8.715,8.715,0,0,1,132.293,18.32Zm0,13.326a5,5,0,0,0,5.093-4.843,5.1,5.1,0,0,0-10.186,0A5.019,5.019,0,0,0,132.293,31.646Z" transform="translate(-80.02 -11.877)" fill="#fff"/>
    <path id="Path_55" data-name="Path 55" d="M181.78,2.913l3.992-.5V15.775l6.915-8.17,3.552,1.6-6,6.563v.352l6.285,7.418-3.96,1.192-6.725-8.4h-.063v8.139l-3.992.25V2.916Z" transform="translate(-117.848 -1.562)" fill="#fff"/>
    <path id="Path_56" data-name="Path 56" d="M231.476,2.669l-2.7,2.673-2.7-2.673L228.775,0ZM226.7,6.946l3.992-.376V22.91l-3.992.25Z" transform="translate(-146.56)" fill="#fff"/>
    <path id="Path_57" data-name="Path 57" d="M247.123,8.58,251.1,6.79v4.572h3.623V14.82H251.1v6.816c0,1.537.658,2.543,2.986,2.543.44,0,.943-.028,1.382-.06L254.5,27.7a7.907,7.907,0,0,1-1.572.127c-3.362,0-5.814-1.79-5.814-5.342V14.805H244.65l.879-3.457H247.1Z" transform="translate(-158.605 -4.402)" fill="#fff"/>
    <path id="Path_58" data-name="Path 58" d="M69.917,71.339a.436.436,0,1,0,.475.433A.457.457,0,0,0,69.917,71.339Z" transform="translate(-45.071 -46.248)" fill="none"/>
    <path id="Path_59" data-name="Path 59" d="M69.917,71.339a.436.436,0,1,0,.475.433A.457.457,0,0,0,69.917,71.339Z" transform="translate(-45.071 -46.248)" fill="none"/>
    <path id="Path_60" data-name="Path 60" d="M24.2,26.426c-2.075-1.361-4.534-4.449-3.964-5.212,4.221-5.645.489-16.094-9.2-16.53C1.965,4.3-3.941,16.181,3.115,23.261c3.313,3.334,8.49,4.488,13.738,1.333.844-.506,3.38.215,5.4,3.1C25.455,32.275,27.967,28.9,24.2,26.426ZM12.66,6.674a9.032,9.032,0,0,0-.626,18.043c-.26.021-.524.035-.791.035a9.144,9.144,0,1,1,0-18.289,8.856,8.856,0,0,1,2.128.257A4.914,4.914,0,0,0,12.66,6.674ZM24.847,28.99a.436.436,0,1,1,.475-.436A.457.457,0,0,1,24.847,28.99Z" transform="translate(0 -3.031)" fill="#fff"/>
  </g>
</svg>
