<svg id="icon-receipt_24px" xmlns="http://www.w3.org/2000/svg" width="26" height="26" viewBox="0 0 26 26">
  <path id="icon_action_receipt_24px" data-name="icon/action/receipt_24px" d="M19.5,23.834h0l-1.624-1.625L16.25,23.833l-1.625-1.625L13,23.833l-1.625-1.625L9.75,23.833,8.125,22.208,6.5,23.833,4.875,22.208,3.25,23.833V2.166L4.875,3.792,6.5,2.166,8.125,3.792,9.75,2.166l1.625,1.625L13,2.166l1.625,1.625L16.25,2.166l1.625,1.625L19.5,2.166l1.624,1.625L22.75,2.166V23.83l-1.625-1.622L19.5,23.833ZM5.417,5.319V20.681H20.583V5.319ZM19.5,18.417H6.5V16.25h13v2.165Zm0-4.333H6.5V11.917h13v2.165Zm0-4.333H6.5V7.583h13V9.749Z" fill="#757575"/>
</svg>
