<svg id="icon_-_scan" data-name="icon - scan" xmlns="http://www.w3.org/2000/svg" width="74" height="65.313" viewBox="0 0 74 65.313">
  <g id="_24-scan" data-name="24-scan">
    <path id="Vector" d="M71.533,23.948a2.643,2.643,0,0,1-1.744-.638,2.056,2.056,0,0,1-.722-1.539V10.886A6.176,6.176,0,0,0,66.9,6.269a7.935,7.935,0,0,0-5.23-1.915H49.333a2.643,2.643,0,0,1-1.744-.638,2.056,2.056,0,0,1-.722-1.539A2.056,2.056,0,0,1,47.589.638,2.643,2.643,0,0,1,49.333,0H61.667a13.227,13.227,0,0,1,8.717,3.192A10.294,10.294,0,0,1,74,10.886V21.771a2.056,2.056,0,0,1-.722,1.539A2.643,2.643,0,0,1,71.533,23.948Zm-66.6-2.177V10.886A6.176,6.176,0,0,1,7.1,6.269a7.935,7.935,0,0,1,5.23-1.915H24.667a2.643,2.643,0,0,0,1.744-.638,2.056,2.056,0,0,0,.722-1.539A2.056,2.056,0,0,0,26.411.638,2.643,2.643,0,0,0,24.667,0H12.333A13.227,13.227,0,0,0,3.617,3.192,10.294,10.294,0,0,0,0,10.886V21.771A2.056,2.056,0,0,0,.722,23.31a2.643,2.643,0,0,0,1.744.638,2.643,2.643,0,0,0,1.744-.638A2.056,2.056,0,0,0,4.933,21.771Zm22.2,41.365a2.056,2.056,0,0,0-.722-1.539,2.643,2.643,0,0,0-1.744-.638H12.333A7.935,7.935,0,0,1,7.1,59.044a6.176,6.176,0,0,1-2.17-4.616V43.542A2.056,2.056,0,0,0,4.211,42a2.643,2.643,0,0,0-1.744-.638A2.643,2.643,0,0,0,.722,42,2.056,2.056,0,0,0,0,43.542V54.428a10.294,10.294,0,0,0,3.617,7.693,13.227,13.227,0,0,0,8.717,3.192H24.667a2.643,2.643,0,0,0,1.744-.638A2.056,2.056,0,0,0,27.133,63.136ZM74,54.428V43.542A2.056,2.056,0,0,0,73.278,42a2.7,2.7,0,0,0-3.488,0,2.056,2.056,0,0,0-.722,1.539V54.428a6.176,6.176,0,0,1-2.17,4.616,7.935,7.935,0,0,1-5.23,1.915H49.333a2.643,2.643,0,0,0-1.744.638,2,2,0,0,0,0,3.079,2.643,2.643,0,0,0,1.744.638H61.667a13.227,13.227,0,0,0,8.717-3.192A10.294,10.294,0,0,0,74,54.428Z" fill="#ffd53f"/>
  </g>
</svg>
