<svg xmlns="http://www.w3.org/2000/svg" width="19.455" height="20" viewBox="0 0 19.455 20">
  <g id="icon-settings_24px" transform="translate(-2.272 -2)">
    <path id="icon_action_settings_24px" data-name="icon/action/settings_24px" d="M14,22H10a.488.488,0,0,1-.49-.419l-.38-2.65a7.312,7.312,0,0,1-1.69-.98l-2.49,1a.468.468,0,0,1-.169.03.5.5,0,0,1-.44-.25l-2-3.46a.5.5,0,0,1,.121-.64l2.11-1.651A7.939,7.939,0,0,1,4.5,12a8.182,8.182,0,0,1,.07-.98L2.462,9.37a.491.491,0,0,1-.121-.64l2-3.46a.492.492,0,0,1,.429-.25.569.569,0,0,1,.18.03l2.49,1a7.65,7.65,0,0,1,1.69-.98l.38-2.65A.488.488,0,0,1,10,2h4a.488.488,0,0,1,.49.42l.381,2.65a7.364,7.364,0,0,1,1.689.98l2.49-1a.471.471,0,0,1,.17-.03.5.5,0,0,1,.44.25l2,3.46a.5.5,0,0,1-.12.64l-2.111,1.65a6.876,6.876,0,0,1,0,1.96l2.111,1.651a.5.5,0,0,1,.12.64l-2,3.46a.493.493,0,0,1-.43.25.569.569,0,0,1-.18-.03l-2.49-1a7.564,7.564,0,0,1-1.689.98l-.381,2.65A.488.488,0,0,1,14,22Zm-6.25-6.32h0l.909.7a5.7,5.7,0,0,0,1.229.71l1.06.43.16,1.13L11.3,20h1.4l.2-1.35.16-1.13,1.059-.43a5.872,5.872,0,0,0,1.25-.73l.9-.68,1.04.42,1.27.51.7-1.211-1.08-.84-.89-.7.139-1.13A7.316,7.316,0,0,0,17.5,12a5.247,5.247,0,0,0-.05-.73l-.139-1.129.89-.7,1.07-.851-.7-1.21-1.27.51-1.06.429-.91-.7a5.681,5.681,0,0,0-1.23-.71l-1.06-.43-.159-1.13L12.692,4H11.3l-.2,1.35-.16,1.13-1.06.43a5.851,5.851,0,0,0-1.25.73l-.9.679L6.692,7.9l-1.27-.51L4.722,8.6l1.08.84.89.7-.14,1.129c-.031.317-.049.538-.049.73,0,.207.021.447.049.741l.14,1.13-.89.7-1.08.84.7,1.21,1.27-.51,1.06-.43ZM12,16a4,4,0,1,1,4-4A4.005,4.005,0,0,1,12,16Zm0-6a2,2,0,1,0,2,2A2,2,0,0,0,12,10Z" fill="#333"/>
  </g>
</svg>
